<?xml version="1.0" encoding="utf-8"?>
<!-- Generator: Adobe Illustrator 21.0.0, SVG Export Plug-In . SVG Version: 6.00 Build 0)  -->
<svg version="1.1" id="Layer_1" xmlns="http://www.w3.org/2000/svg" xmlns:xlink="http://www.w3.org/1999/xlink" x="0px" y="0px"
	 viewBox="0 0 320 320" style="enable-background:new 0 0 320 320;" xml:space="preserve">
<style type="text/css">
	.st0{fill:none;}
	.st1{fill:none;}
	.st2{fill:#93B4CB;}
	.st3{fill:#D8E4EC;}
	.st4{fill:#C7D8E4;}
	.st5{fill:#A5C0D3;}
	.st6{fill:#82A8C3;}
</style>
<rect class="st0" width="320" height="320"/>
<g>
	<g>

			<rect x="47.3" y="115.6" transform="matrix(0.999 -4.374250e-02 4.374250e-02 0.999 -5.9403 2.323)" class="st2" width="5.6" height="42.5"/>
		<path class="st6" d="M150.6,149.3c-3.9,1.6-10.2,1.7-14.2,0.4l-102-22.2c-3.9-1.4-4.1-4-0.3-5.8l102.4-52.3
			c3.7-1.8,9.9-1.9,13.7-0.2l103.2,44.4c3.8,1.7,3.7,4.4-0.1,6L150.6,149.3z"/>
		<g>
			<path class="st5" d="M48.8,154.6c-1.9,0.6-4.3,7.3-5.4,12.6s-1.2,13.4-1.2,13.4s0.9,5.6,9.3,5.1c8.4-0.5,10.5-4.2,10.4-4.7
				c0-0.5-1.2-10.5-2.2-13.8c-1-3.3-3.1-9-4.4-10.5c-1.3-1.4-3.1-3.6-3.1-3.6L48.8,154.6z"/>

				<ellipse transform="matrix(0.999 -4.374250e-02 4.374250e-02 0.999 -6.5674 2.377)" class="st5" cx="51" cy="151.3" rx="4.7" ry="4.7"/>
		</g>
		<path class="st2" d="M212.7,162.7l-1.7-38c-1.4-9.9-31.2-16.3-67.2-14.8c-0.2,0-0.4,0-0.6,0l0,0c-35.6,1.7-64.1,10.6-65,20.5
			l-0.1,0l1.7,38L212.7,162.7z"/>
		<path class="st6" d="M212.7,162.7c0.4,10.1-28.6,19.3-65.4,20.9s-67-5.3-67.4-15.5s29-19.7,65.8-21.3S212.2,152.6,212.7,162.7z"/>
	</g>
	<g>
		<g>
			<path class="st4" d="M84.8,252l198.9-44c5-1.1,6-11,3.7-21.7c-0.3-1.5-0.6-2.5-1.2-4.4l-123.9,19.9l-83,25.9L84.8,252z"/>
			<path class="st3" d="M275.1,168.9l-198.9,44l3.1,14.7l207-45.8C283.8,174.2,279.4,168,275.1,168.9z"/>
		</g>
		<path class="st5" d="M191.9,175.7c-5.1,0.2-8.1,2.8-9.4,4.3c-1.3,1.6-8.6,9.3-8.6,9.3c-0.7-1.8-13.4-9.3-25.5-9.9
			c-12.1-0.6-12,2.7-12.9,6.1c-0.9,3.4,7,3.9,14.1,5.3c6.4,1.2,10.2,1.3,16.3,2.2l-7.2,1.6c4.8-1.1,9.9,1.7,13.3,7.6
			c1.5,2.5,2.6,5.1,3.3,8.4c0.7,3.3,0.9,6.7,0.7,9.6c-0.7,6.8-3.8,12.4-8.7,13.4l19.7-4.4c6.9-1.5,10.6-11.4,8.2-22.3
			c-2-9-7.4-15.5-13.1-16.8c0.7-0.5,1.4-1.1,1.9-1.6c2.9-2.9,12.2-7.9,17.6-9.7C207.1,177.1,197,175.5,191.9,175.7z"/>
		<path class="st3" d="M90,230.1c2.4,10.7-0.3,20.8-5.2,21.9c-4.9,1.1-10.2-7.3-12.6-17.9c-2.4-10.7-1-20,3.9-21.1
			C81.1,211.8,87.7,219.5,90,230.1z"/>
	</g>
</g>
</svg>